<svg preserveAspectRatio="none" width="100%" height="100%" overflow="visible" style="display: block;" viewBox="0 0 123.184 63.4582" fill="none" xmlns="http://www.w3.org/2000/svg">
<g id="Ilustra&#195;&#167;&#195;&#163;o Grama">
<rect width="123.184" height="63.4582" fill="black" fill-opacity="0.01"/>
<path id="Vector" d="M21.2093 39.9942C21.1506 39.3095 21.0207 38.612 20.9503 37.9274C20.5628 34.1611 20.2561 30.2623 20.4461 26.4704C20.7291 20.8247 21.8762 13.0656 24.8094 8.15648C25.3977 7.17363 26.1208 6.27803 26.9576 5.49576C27.9484 4.56325 29.177 4.15204 30.5274 4.19719C31.8505 4.24142 32.9314 4.88839 33.8163 5.84048C37.4287 9.72711 37.6415 20.0534 37.5184 25.1727C37.4808 26.7365 37.3322 28.2987 37.2716 29.8626C37.2279 30.482 37.1578 31.0992 37.0614 31.7126C37.1963 31.4864 37.3324 31.2909 37.3807 31.0307L37.4056 30.9755C37.6031 30.5306 37.8117 29.7575 37.9655 29.2786C38.4557 27.7181 38.9786 26.2486 40.0221 24.9585C40.549 24.307 40.8934 23.8138 41.7354 23.5024C44.3502 22.5353 45.9672 24.5606 46.8319 26.7195C47.5793 28.5854 47.5784 30.0781 47.7548 31.9764C47.7982 32.4912 47.8032 32.8641 47.7986 33.3822C47.7617 33.6986 47.802 34.0106 47.83 34.3279C47.8633 34.137 47.9792 33.5398 47.9878 33.3763C48.0362 32.9221 48.1179 32.482 48.1963 32.0322C48.3943 30.7104 48.6601 29.4891 48.9296 28.1732C49.9986 22.9551 51.188 17.7512 54.5641 13.4858C56.1598 11.4698 59.7808 9.30077 61.7104 12.1481C64.1764 15.788 63.2231 21.6833 62.8189 25.8239C62.6523 27.3764 62.5157 28.8705 62.3179 30.3992C62.1669 31.5674 61.8806 32.821 61.7392 34.0026C61.6695 34.5829 61.2544 36.0667 61.2743 36.5202C61.1847 37.0237 61.1071 37.4627 61.0553 37.9707C61.2141 37.6947 61.3489 37.4068 61.3807 37.0848C62.7648 33.5366 63.4059 27.4389 68.1077 26.6831C68.9895 26.5414 69.6746 26.939 70.3561 27.4428C72.0655 28.7065 72.5364 31.3354 72.7897 33.2963C72.8342 33.7854 72.8757 34.1691 72.9593 34.6521C73.0116 34.3334 73.0808 33.9753 73.0994 33.6562C73.2293 32.8135 73.2438 31.8479 73.26 30.9916C73.346 26.4664 73.6486 22.0294 74.211 17.5283C74.6795 13.7783 76.5507 8.54252 79.5539 6.09908C82.8567 3.41134 85.7312 7.07456 86.8722 9.95195C88.6496 13.898 89.15 17.9404 89.541 22.2216C89.6288 23.143 89.5957 24.0205 89.633 24.9404C89.9788 29.5653 88.9804 33.9226 88.3157 38.4622C89.3196 36.6452 90.1581 34.7223 91.2534 32.9307C91.9198 31.8408 92.5381 30.9818 93.2876 29.9685C95.8661 26.4811 99.128 23.4992 103.27 22.0202C108.061 20.2854 110.687 23.1768 110.931 27.8176C111.241 33.6901 108.598 39.2642 106.083 44.4097C106.457 44.2883 106.882 44.1428 107.258 44.041C108.651 43.6631 110.136 43.8524 111.389 44.5673C112.395 45.1488 113.241 46.522 113.547 47.6497C114.512 51.2038 111.748 55.1288 109.169 57.3117C107.83 58.4448 105.063 59.3943 103.322 59.8558C101.154 60.4161 98.9337 60.7508 96.6968 60.8545C95.477 60.9038 94.0527 60.8696 92.8106 60.8721L88.0439 60.8996L77.4078 60.9714L47.3476 61.1396L24.2218 61.2774L17.3118 61.3333C15.0474 61.3423 13.032 61.6154 10.9025 60.3678C7.39301 58.3119 4.855 53.389 6.81956 49.4749C7.52576 48.0679 8.87687 47.4318 10.3652 47.0427C10.2744 46.9024 10.1927 46.7563 10.1206 46.6055C9.31938 44.9165 8.68993 42.7156 7.88424 40.968C7.54458 40.2313 7.19452 38.77 6.96331 37.9581C5.92612 34.288 4.46211 30.0168 5.59687 26.2285C6.60555 22.8614 10.3797 24.743 11.9701 26.3767C15.5705 30.0751 19.1037 35.2612 21.2093 39.9942Z" fill="var(--fill-0, #76C7A8)"/>
<path id="Vector_2" d="M82.3639 43.7488C83.2595 43.6855 83.8845 44.9854 84.0463 45.7095C84.1154 46.016 84.1467 46.5051 84.1762 46.8258C84.421 46.6382 84.7765 46.2709 85.0465 46.155C85.9409 45.7705 87.103 46.1721 87.4729 47.1006C87.8705 48.0998 87.601 48.5733 87.2383 49.4701C86.8119 49.6747 86.4648 49.8486 86.0155 49.9976C86.5719 50.3343 87.5511 51.0168 87.7977 51.6182C88.3312 52.9223 86.7337 53.4712 85.8658 53.8651C84.578 53.2903 84.3915 53.524 83.2638 52.3059C83.1813 52.826 83.1296 53.4412 82.8373 53.8759C82.0554 54.8099 81.0034 55.3544 79.878 54.5459C79.3493 54.1595 78.9968 53.5782 78.8988 52.9309C78.7328 51.8648 79.4576 51.0726 80.0566 50.2497C78.7586 50.2381 77.4612 50.0559 76.7359 48.7728C76.3377 48.0691 76.7377 47.3013 77.4402 46.9797C78.6522 46.4246 79.7752 46.8063 80.9541 47.1968C80.7929 46.7834 80.5781 46.3183 80.5258 45.881C80.3363 44.3106 81.0292 43.9474 82.3639 43.7488Z" fill="var(--fill-0, #E7AC13)"/>
<path id="Vector_3" d="M82.4597 48.3767C82.5764 48.3681 82.9162 48.3528 82.995 48.417C83.4804 48.8133 83.5099 49.6776 83.1869 50.1809C83.0425 50.4063 82.8121 50.4136 82.583 50.4458C82.0314 50.3251 81.961 50.3054 81.5598 49.914C81.5111 48.9598 81.4305 48.5672 82.4597 48.3767Z" fill="var(--fill-0, #F6D916)"/>
<path id="Vector_4" d="M25.7401 40.7922C26.6638 40.7023 27.4605 41.0593 27.6908 42.0103C27.9268 42.9852 27.4635 43.8124 26.9782 44.6112C28.1747 44.6434 28.5716 44.5582 29.4629 45.4235C29.9779 47.4339 28.913 48.8771 26.7852 48.3756C27.1392 49.2315 27.316 49.7671 27.2849 50.6909C26.7186 51.6254 26.125 51.7013 25.1141 51.7605C23.5828 50.6953 23.4039 50.474 23.2625 48.6032C23.0228 48.893 22.7871 49.137 22.5274 49.4081C21.7125 50.0514 20.8967 50.3395 19.9452 49.7279C19.4726 49.4237 19.1445 48.94 19.0367 48.3884C18.9169 47.7693 19.0743 47.0426 19.4316 46.5252C20.0169 45.6776 20.8887 45.473 21.8208 45.2874C20.7139 44.6642 19.4114 43.4656 19.7669 42.0841C20.0089 41.1436 20.7705 40.9162 21.6368 41.1444C22.7916 41.4485 23.4718 42.2589 24.0427 43.2352C24.1677 41.8711 24.4537 41.3292 25.7401 40.7922Z" fill="var(--fill-0, #F6D916)"/>
<path id="Vector_5" d="M24.6397 45.0606C25.6054 44.9252 25.7952 46.0598 25.3698 46.7048C25.2216 46.9295 24.9419 46.9359 24.6898 46.9727C23.8716 46.9538 23.3497 46.6246 23.7429 45.6904C23.9171 45.2765 24.2352 45.1846 24.6397 45.0606Z" fill="var(--fill-0, #E7AC13)"/>
<path id="Vector_6" d="M94.458 39.8958C95.6225 39.7888 95.8613 40.1667 96.5235 41.0776C96.6149 42.1072 96.4694 42.8335 95.8378 43.6742C97.4618 43.533 98.9427 44.0444 98.3779 46.1361C98.2034 46.7817 97.4396 47.3367 96.8369 47.6028C96.3984 47.5628 96.1145 47.5039 95.6826 47.4119C96.3599 48.7535 96.7527 49.8371 95.2929 50.8009C93.0891 50.9347 92.5327 49.8598 92.25 47.8881C92.031 48.1456 91.764 48.3637 91.509 48.5865C90.9327 49.0231 90.4341 49.2239 89.743 49.3869C89.5132 49.3063 89.2913 49.2115 89.0717 49.0948C87.2781 48.1395 87.6673 45.3837 89.5818 44.8484C89.9535 44.7444 90.3457 44.6436 90.7294 44.547C90.1328 44.2205 89.3123 43.5612 88.9075 42.9904C87.9771 41.6789 88.454 40.05 90.2843 40.3866C91.3261 40.5783 92.2013 41.4432 92.7853 42.296C92.8767 41.1494 93.3284 40.2692 94.458 39.8958Z" fill="var(--fill-0, #F6D916)"/>
<path id="Vector_7" d="M92.7905 44.3351C94.2906 44.2309 94.2828 44.6881 94.2575 45.9823L93.7492 46.1121C92.5992 46.3504 92.3213 45.9265 92.2822 44.8662C92.453 44.6282 92.5709 44.5323 92.7905 44.3351Z" fill="var(--fill-0, #E7AC13)"/>
<path id="Vector_8" d="M65.8172 41.0255C67.4545 40.9423 68.4379 42.3429 68.8367 43.757C69.5747 42.2879 69.5218 41.9965 71.2715 41.6419C73.2413 42.335 72.9514 44.4886 71.4862 45.602C71.5999 45.635 71.9415 45.7507 72.0522 45.766C74.2338 46.0674 74.2043 48.4867 72.5472 49.4799C71.9939 49.8113 71.227 49.6054 70.5948 49.3859C70.8083 50.2192 70.8619 50.3989 70.7921 51.2434C70.3951 52.8582 68.6556 52.7153 67.6915 51.6835C66.8831 50.8184 67.0328 49.988 67.0701 48.9051C66.438 49.3883 66.1053 49.5724 65.4269 49.9661C64.9625 49.8629 63.8769 49.7726 63.5936 49.3705C61.8619 46.9141 63.9857 45.2375 66.4055 45.3212C65.0744 44.2624 64.3051 43.1081 65.0467 41.3971L65.8172 41.0255Z" fill="var(--fill-0, #F6D916)"/>
<path id="Vector_9" d="M68.3592 45.7808C69.3203 45.6987 69.7714 46.5654 69.4635 47.4311C69.3859 47.6488 69.0906 47.7217 68.88 47.7931C67.5357 47.9403 67.2729 46.5105 68.3592 45.7808Z" fill="var(--fill-0, #E7AC13)"/>
<path id="Vector_10" d="M41.4132 35.8662C43.0944 35.7444 43.7517 37.0652 44.5038 38.2675C44.8569 38.0726 45.3622 34.63 48.0997 36.823C48.6607 38.302 48.1411 38.8687 47.354 40.066C48.6193 40.2626 48.7666 40.1626 49.7306 41.029C49.9212 43.2949 48.9913 44.2895 46.6639 43.779C47.0013 44.41 47.1059 44.8256 47.0939 45.5242C46.9811 46.0854 46.8804 46.33 46.5099 46.755C45.631 47.032 44.9322 47.1106 44.1854 46.4702C43.2268 45.6482 43.1763 44.8591 43.091 43.6906C41.619 45.0305 39.5146 45.4354 39.0163 42.8344C38.774 41.5694 40.049 40.5026 41.1223 40.2483C41.4212 40.1775 41.8134 40.1618 42.1513 40.1487C41.4856 39.6991 40.5451 38.7586 40.3954 37.9433C40.3078 37.4659 40.3447 36.6608 40.603 36.2146C40.7551 35.9518 41.1289 35.9159 41.4132 35.8662Z" fill="var(--fill-0, #F6D916)"/>
<path id="Vector_11" d="M44.6861 39.8929C46.0533 39.8683 46.4221 41.3344 45.2142 41.7854C44.6905 41.8192 44.2681 41.709 44.0597 41.1749C43.9604 40.9239 43.971 40.6427 44.0891 40.3999C44.2402 40.0819 44.3718 40.0053 44.6861 39.8929Z" fill="var(--fill-0, #E7AC13)"/>
<path id="Vector_12" d="M53.46 42.7782C54.9848 42.6363 56.0761 44.2719 56.4857 45.5464C56.8102 45.1201 57.0914 44.4295 57.476 43.8905C58.6087 43.3783 60.0052 43.3446 60.3407 44.8718C60.5765 45.9449 59.8852 46.768 59.292 47.5878C60.1011 47.7353 60.6078 47.95 61.2333 48.4847C61.4992 49.8443 61.3235 50.7337 60.0344 51.4745C59.4199 51.4701 58.7852 51.4159 58.1705 51.3728C58.3129 51.8664 58.3621 52.2683 58.3774 52.7759C58.3097 53.2142 58.1191 53.5884 57.9221 53.9778C57.3942 54.0649 56.8567 54.1356 56.3553 54.3212C54.6479 53.4461 54.648 52.5303 54.5784 50.8291C53.5145 51.4105 52.2254 52.1139 51.1878 51.0153C50.7857 50.5829 50.5729 50.0079 50.5965 49.4179C50.6172 48.8174 50.8793 48.2506 51.3233 47.8459C52.0686 47.1546 52.8839 47.1259 53.8196 47.1681C53.3488 46.6044 52.6627 45.6883 52.5367 44.9596C52.3803 44.0551 52.3629 42.9899 53.46 42.7782Z" fill="var(--fill-0, #E7AC13)"/>
<path id="Vector_13" d="M56.2904 47.6505C56.9374 47.6095 57.3683 47.729 57.5004 48.4478C57.5497 48.7139 57.4888 48.9886 57.3318 49.209C57.19 49.4082 57.0604 49.4138 56.8284 49.452C56.6884 49.4682 56.2727 49.525 56.1657 49.4704C55.1853 48.9708 55.4546 48.0518 56.2904 47.6505Z" fill="var(--fill-0, #F6D916)"/>
<path id="Vector_14" d="M34.9837 45.9034C36.6933 45.7977 37.0247 47.5189 37.3017 48.7849C37.8896 48.254 38.3234 48.0876 39.0805 47.9089C40.2438 48.291 41.0313 49.3132 40.6774 50.6315C40.4964 51.3056 39.8844 51.6212 39.2922 51.9125C39.9772 52.4257 40.4691 52.8868 40.9133 53.616C40.9406 54.0257 40.901 54.5297 40.8789 54.9479C38.689 56.181 38.2653 55.9918 36.5324 54.2763C36.3321 54.8059 36.3549 55.2794 36.1524 55.8281C36.1291 55.8697 36.1049 55.9108 36.0797 55.9514C35.5647 56.7785 34.8743 56.9319 33.9868 57.1373C31.6628 55.9299 31.6467 54.1538 33.3903 52.3718C32.5687 52.4054 31.5001 52.4008 30.7642 51.965C29.1454 51.0126 29.415 49.3165 31.2364 48.8827C32.2504 48.6411 32.9981 48.9222 33.8347 49.4481C33.5313 48.3927 33.3481 47.4783 33.8429 46.4702C34.2503 46.1574 34.5137 46.0558 34.9837 45.9034Z" fill="var(--fill-0, #E7AC13)"/>
<path id="Vector_15" d="M35.5126 50.4153C36.782 50.5027 37.5893 51.6173 36.1907 52.2473C36.0544 52.2701 35.6296 52.3522 35.5172 52.2983C34.699 51.9057 34.731 50.8394 35.5126 50.4153Z" fill="var(--fill-0, #F6D916)"/>
<path id="Vector_16" d="M37.9359 56.4035C38.1598 56.4671 38.2051 56.4732 38.2596 56.683C38.1888 56.9179 37.8984 57.1473 37.7102 57.3251C37.5265 57.3028 37.5003 57.2265 37.4483 57.083C37.4837 56.7902 37.7225 56.5828 37.9359 56.4035Z" fill="var(--fill-0, #66A828)"/>
<path id="Vector_17" d="M49.7539 30.9763L49.9012 30.7346L50.0051 30.7212C50.1133 30.8467 50.1268 30.8803 50.1955 31.032C50.117 31.4818 50.0353 31.922 49.9869 32.3762L49.9034 32.4312L49.7977 32.3821C49.8023 31.864 49.7973 31.4911 49.7539 30.9763Z" fill="var(--fill-0, #66A828)" fill-opacity="0.0156863"/>
<path id="Vector_18" d="M74.7891 32.2959L74.8065 32.2597C74.8594 32.1499 74.8817 32.1247 74.8829 32.0076C74.9316 31.962 74.9749 31.9148 75.017 31.8623C75.0056 32.0917 74.9533 32.4857 75.0988 32.6558C75.0802 32.9749 75.011 33.333 74.9587 33.6516C74.8751 33.1686 74.8336 32.785 74.7891 32.2959Z" fill="var(--fill-0, #66A828)" fill-opacity="0.0392157"/>
<path id="Vector_19" d="M39.2716 28.8618C39.3017 29.1943 39.2424 29.8618 39.3806 30.0299C39.3324 30.2901 39.1963 30.4856 39.0613 30.7119C39.1577 30.0985 39.2279 29.4812 39.2716 28.8618Z" fill="var(--fill-0, #66A828)" fill-opacity="0.14902"/>
<path id="Vector_20" d="M63.0547 36.97C63.1064 36.462 63.184 36.023 63.2736 35.5195C63.2851 35.7192 63.2676 35.9352 63.3801 36.0841C63.3482 36.4061 63.2135 36.6941 63.0547 36.97Z" fill="var(--fill-0, #66A828)" fill-opacity="0.133333"/>
<path id="Vector_21" d="M49.798 32.3813L49.9036 32.4305L49.9872 32.3755C49.9786 32.5389 49.8627 33.1361 49.8294 33.3271C49.8014 33.0097 49.7611 32.6977 49.798 32.3813Z" fill="var(--fill-0, #66A828)" fill-opacity="0.658824"/>
</g>
</svg>
