<svg preserveAspectRatio="none" width="100%" height="100%" overflow="visible" style="display: block;" viewBox="0 0 87.9824 87.9824" fill="none" xmlns="http://www.w3.org/2000/svg">
<g id="&#195;&#141;cone Sino">
<path id="Vector" opacity="0.15" d="M43.9609 71.8212C48.0265 71.8212 51.3224 68.4442 51.3224 64.2784C51.3224 60.1127 48.0265 56.7356 43.9609 56.7356C39.8952 56.7356 36.5993 60.1127 36.5993 64.2784C36.5993 68.4442 39.8952 71.8212 43.9609 71.8212Z" fill="var(--fill-0, #7A4D29)"/>
<path id="Vector_2" d="M41.7899 54.9879H46.189L44.5394 66.9028C44.1728 67.6417 43.8062 67.6417 43.4396 66.9028L41.7899 54.9879Z" fill="var(--fill-0, #C9B7A3)" stroke="var(--stroke-0, #7A4D29)" stroke-width="2.74945" stroke-linejoin="round"/>
<path id="Vector_3" d="M31.8933 32.9926C31.8933 26.9439 36.2924 23.6445 43.9909 23.6445C51.6893 23.6445 56.0885 26.9439 56.0885 32.9926L53.8889 51.139C53.8889 55.5381 48.9399 57.7377 43.9909 57.7377C39.0419 57.7377 34.0929 55.5381 34.0929 51.139L31.8933 32.9926Z" fill="var(--fill-0, #F3EDD0)" stroke="var(--stroke-0, #7A4D29)" stroke-width="3.29934" stroke-linejoin="round"/>
<path id="Vector_4" opacity="0.6" d="M37.9427 30.7924C37.9427 28.043 40.1423 26.9432 42.8917 26.9432" stroke="var(--stroke-0, white)" stroke-width="2.19956" stroke-linecap="round"/>
<path id="Vector_5" d="M43.9922 17.5959C34.644 8.24782 24.1961 13.1968 28.0454 21.4452C30.7948 26.3942 39.593 23.6447 43.9922 17.5959Z" fill="var(--fill-0, #E6555F)" stroke="var(--stroke-0, #7A4D29)" stroke-width="2.74945" stroke-linejoin="round"/>
<path id="Vector_6" d="M43.9922 17.597C53.3404 8.24886 63.7883 13.1979 59.939 21.4462C57.1896 26.3952 48.3914 23.6458 43.9922 17.597Z" fill="var(--fill-0, #E6555F)" stroke="var(--stroke-0, #7A4D29)" stroke-width="2.74945" stroke-linejoin="round"/>
<path id="Vector_7" d="M45.6411 14.2976H42.3417C40.8233 14.2976 39.5923 15.5286 39.5923 17.0471V19.7965C39.5923 21.315 40.8233 22.546 42.3417 22.546H45.6411C47.1595 22.546 48.3905 21.315 48.3905 19.7965V17.0471C48.3905 15.5286 47.1595 14.2976 45.6411 14.2976Z" fill="var(--fill-0, #DC4A54)" stroke="var(--stroke-0, #7A4D29)" stroke-width="2.74945"/>
</g>
</svg>
