<svg preserveAspectRatio="none" width="100%" height="100%" overflow="visible" style="display: block;" viewBox="0 0 13.125 41.5633" fill="none" xmlns="http://www.w3.org/2000/svg">
<g id="Grupo Marcador">
<path id="Vector" d="M11.2386 4.6875C11.2386 2.61643 9.14563 0.9375 6.56376 0.9375C3.98189 0.9375 1.88887 2.61643 1.88887 4.6875V17.8125C1.88887 19.8836 3.98189 21.5625 6.56376 21.5625C9.14563 21.5625 11.2386 19.8836 11.2386 17.8125V4.6875Z" fill="var(--fill-0, #F4A73E)" stroke="var(--stroke-0, #7A4D29)" stroke-width="1.875"/>
<path id="Vector_2" opacity="0.5" d="M4.79548 4.21859C4.79548 3.70082 4.37575 3.28109 3.85798 3.28109C3.34022 3.28109 2.92048 3.70082 2.92048 4.21859V18.5936C2.92048 19.1114 3.34022 19.5311 3.85798 19.5311C4.37575 19.5311 4.79548 19.1114 4.79548 18.5936V4.21859Z" fill="var(--fill-0, white)"/>
<path id="Vector_3" d="M10.3125 20.9383H2.8125C1.77697 20.9383 0.9375 21.7778 0.9375 22.8133V25.9383C0.9375 26.9739 1.77697 27.8133 2.8125 27.8133H10.3125C11.348 27.8133 12.1875 26.9739 12.1875 25.9383V22.8133C12.1875 21.7778 11.348 20.9383 10.3125 20.9383Z" fill="var(--fill-0, #F6D916)" stroke="var(--stroke-0, #7A4D29)" stroke-width="1.875"/>
<path id="Vector_4" d="M1.56267 27.8133H11.5627L9.68767 37.8133C7.60434 41.5633 5.521 41.5633 3.43767 37.8133L1.56267 27.8133Z" fill="var(--fill-0, #66A828)" stroke="var(--stroke-0, #7A4D29)" stroke-width="1.875" stroke-linejoin="round"/>
<path id="Vector_5" d="M4.68651 32.8135C5.93651 34.8968 7.18651 34.8968 8.43651 32.8135" stroke="var(--stroke-0, white)" stroke-width="1.875" stroke-linecap="round"/>
</g>
</svg>
