<svg preserveAspectRatio="none" width="100%" height="100%" overflow="visible" style="display: block;" viewBox="0 0 41.9 34.4" fill="none" xmlns="http://www.w3.org/2000/svg">
<g id="Grupo Paleta">
<path id="Vector" d="M20.95 33.45C31.9957 33.45 40.95 26.1746 40.95 17.2C40.95 8.22537 31.9957 0.95 20.95 0.95C9.9043 0.95 0.95 8.22537 0.95 17.2C0.95 26.1746 9.9043 33.45 20.95 33.45Z" fill="var(--fill-0, #F3EDD0)" stroke="var(--stroke-0, #7A4D29)" stroke-width="1.9"/>
<path id="Vector_2" d="M11.575 12.2C13.6461 12.2 15.325 10.5211 15.325 8.45C15.325 6.37893 13.6461 4.7 11.575 4.7C9.50393 4.7 7.825 6.37893 7.825 8.45C7.825 10.5211 9.50393 12.2 11.575 12.2Z" fill="var(--fill-0, #E6555F)"/>
<path id="Vector_3" d="M22.2 9.7C24.2711 9.7 25.95 8.02107 25.95 5.95C25.95 3.87893 24.2711 2.2 22.2 2.2C20.1289 2.2 18.45 3.87893 18.45 5.95C18.45 8.02107 20.1289 9.7 22.2 9.7Z" fill="var(--fill-0, #F6D916)"/>
<path id="Vector_4" d="M32.201 13.45C34.272 13.45 35.951 11.7711 35.951 9.7C35.951 7.62893 34.272 5.95 32.201 5.95C30.1299 5.95 28.451 7.62893 28.451 9.7C28.451 11.7711 30.1299 13.45 32.201 13.45Z" fill="var(--fill-0, #66A828)"/>
<path id="Vector_5" d="M9.07402 24.7C11.1451 24.7 12.824 23.0211 12.824 20.95C12.824 18.8789 11.1451 17.2 9.07402 17.2C7.00296 17.2 5.32402 18.8789 5.32402 20.95C5.32402 23.0211 7.00296 24.7 9.07402 24.7Z" fill="var(--fill-0, #B4D3F0)"/>
<path id="Vector_6" d="M18.45 30.0125C20.3485 30.0125 21.8875 28.4735 21.8875 26.575C21.8875 24.6765 20.3485 23.1375 18.45 23.1375C16.5515 23.1375 15.0125 24.6765 15.0125 26.575C15.0125 28.4735 16.5515 30.0125 18.45 30.0125Z" fill="var(--fill-0, #F4A73E)"/>
<path id="Vector_7" d="M29.8269 28.7624C32.1412 28.7624 34.0173 26.9868 34.0173 24.7966C34.0173 22.6064 32.1412 20.8309 29.8269 20.8309C27.5126 20.8309 25.6365 22.6064 25.6365 24.7966C25.6365 26.9868 27.5126 28.7624 29.8269 28.7624Z" fill="var(--fill-0, white)" stroke="var(--stroke-0, #7A4D29)" stroke-width="1.5625"/>
</g>
</svg>
