<svg preserveAspectRatio="none" width="100%" height="100%" overflow="visible" style="display: block;" viewBox="0 0 16.875 41.2495" fill="none" xmlns="http://www.w3.org/2000/svg">
<g id="Grupo Pincel">
<path id="Vector" d="M12.1875 0.9375L4.68754 0.9375C2.61647 0.9375 0.937535 2.61643 0.937535 4.6875L0.937535 6.5625C0.937535 8.63357 2.61647 10.3125 4.68754 10.3125H12.1875C14.2586 10.3125 15.9375 8.63357 15.9375 6.5625V4.6875C15.9375 2.61643 14.2586 0.9375 12.1875 0.9375Z" fill="var(--fill-0, #F6D916)" stroke="var(--stroke-0, #7A4D29)" stroke-width="1.875"/>
<path id="Vector_2" d="M12.8125 9.68679H4.0625C2.33661 9.68679 0.9375 11.0859 0.9375 12.8118L0.9375 29.0618C0.9375 30.7877 2.33661 32.1868 4.0625 32.1868H12.8125C14.5384 32.1868 15.9375 30.7877 15.9375 29.0618L15.9375 12.8118C15.9375 11.0859 14.5384 9.68679 12.8125 9.68679Z" fill="var(--fill-0, white)" stroke="var(--stroke-0, #7A4D29)" stroke-width="1.875"/>
<path id="Vector_3" d="M15.938 17.8127H0.937987L0.937987 22.1877H15.938V17.8127Z" fill="var(--fill-0, #FC995F)"/>
<path id="Vector_4" d="M0.937987 17.8127H15.938" stroke="var(--stroke-0, #7A4D29)" stroke-width="1.5625"/>
<path id="Vector_5" d="M0.938113 22.1876H15.9381" stroke="var(--stroke-0, #7A4D29)" stroke-width="1.5625"/>
<path id="Vector_6" d="M4.06294 32.1871H12.8129L10.3129 37.1871H6.56294L4.06294 32.1871Z" fill="var(--fill-0, #F3EDD0)" stroke="var(--stroke-0, #7A4D29)" stroke-width="1.875" stroke-linejoin="round"/>
<path id="Vector_7" d="M6.56217 37.187H10.3122L9.06217 41.2495H7.81217L6.56217 37.187Z" fill="var(--fill-0, #7A4D29)"/>
</g>
</svg>
